<svg width="1024" height="1024" viewBox="0 0 1024 1024" fill="none" xmlns="http://www.w3.org/2000/svg">
<rect width="1024" height="1024" rx="80" fill="black"/>
<path d="M312 712C312 656.772 356.772 612 412 612H512V712C512 767.228 467.228 812 412 812C356.772 812 312 767.228 312 712Z" fill="#24CB71"/>
<path d="M512 212V412H612C667.228 412 712 367.228 712 312C712 256.772 667.228 212 612 212H512Z" fill="#FF7237"/>
<path d="M611.167 612C666.395 612 711.167 567.228 711.167 512C711.167 456.772 666.395 412 611.167 412C555.939 412 511.167 456.772 511.167 512C511.167 567.228 555.939 612 611.167 612Z" fill="#00B6FF"/>
<path d="M312 312C312 367.228 356.772 412 412 412H512V212H412C356.772 212 312 256.772 312 312Z" fill="#FF3737"/>
<path d="M312 512C312 567.228 356.772 612 412 612H512V412H412C356.772 412 312 456.772 312 512Z" fill="#874FFF"/>
</svg>
