<svg width="50" height="48" viewBox="0 0 50 48" fill="none" xmlns="http://www.w3.org/2000/svg">
<path d="M21.1426 35.0849C14.6972 34.3106 10.1562 29.7133 10.1562 23.7609C10.1562 21.3413 11.0352 18.7281 12.5 16.9859C11.8653 15.389 11.9629 12.0015 12.6953 10.5981C14.6484 10.3561 17.2852 11.3723 18.8477 12.7757C20.7031 12.195 22.6562 11.9047 25.0488 11.9047C27.4414 11.9047 29.3945 12.195 31.1523 12.7273C32.666 11.3723 35.3516 10.3561 37.3047 10.5981C37.9883 11.9047 38.0859 15.2922 37.4512 16.9375C39.0137 18.7765 39.8437 21.2445 39.8437 23.7609C39.8437 29.7133 35.3028 34.2138 28.7597 35.0365C30.4199 36.1011 31.543 38.424 31.543 41.0857V46.1185C31.543 47.5703 32.7637 48.393 34.2285 47.8123C43.0664 44.4732 50 35.714 50 24.874C50 11.1788 38.7695 1.2067e-07 24.9512 0C11.1328 -1.2067e-07 1.21755e-07 11.1788 0 24.874C-9.55107e-08 35.6172 6.88475 44.5215 16.1621 47.8606C17.4805 48.3446 18.75 47.4735 18.75 46.1669V42.2954C18.0664 42.5858 17.1875 42.7794 16.4062 42.7794C13.1836 42.7794 11.2793 41.0373 9.91209 37.7949C9.375 36.4883 8.78908 35.714 7.66602 35.5688C7.0801 35.5204 6.88474 35.2785 6.88474 34.9881C6.88474 34.4074 7.86133 33.9719 8.83791 33.9719C10.2539 33.9719 11.4746 34.843 12.7441 36.6335C13.7207 38.0369 14.7461 38.666 15.9668 38.666C17.1875 38.666 17.9687 38.2305 19.0918 37.1174C19.9219 36.2947 20.5566 35.5688 21.1426 35.0849Z" fill="#A5D3C6"/>
</svg>
