<svg width="57" height="43" viewBox="0 0 57 43" fill="none" xmlns="http://www.w3.org/2000/svg">
<path d="M3.86858 42.5199H12.8953V20.6738L0 10.9645V38.6513C0 40.7752 1.74465 42.5199 3.86858 42.5199Z" fill="#A5D3C6"/>
<path d="M43.7676 42.5199H52.7943C54.9182 42.5199 56.6628 40.7752 56.6628 38.6513V10.9645L43.7676 20.598" fill="#A5D3C6"/>
<path d="M43.7676 3.91012V20.6739L56.6628 11.0404V5.80648C56.6628 1.02765 51.2013 -1.70311 47.4086 1.17936" fill="#A5D3C6"/>
<path d="M12.8955 20.674V3.91016L28.3698 15.5159L43.7683 3.91016V20.674L28.294 32.2038" fill="#A5D3C6"/>
<path d="M0 5.80636V10.9645L12.8953 20.598V3.91L9.25424 1.17924C5.46152 -1.62737 0 1.10339 0 5.80636Z" fill="#A5D3C6"/>
</svg>
