<svg width="50" height="42" viewBox="0 0 50 42" fill="none" xmlns="http://www.w3.org/2000/svg">
<path d="M45.7373 0.370788C45.7373 0.370788 50.3626 -1.44721 49.9772 2.96793C49.8487 4.78596 48.6924 11.149 47.793 18.0314L44.7094 38.4191C44.7094 38.4191 44.4525 41.4057 42.1398 41.9252C39.827 42.4446 36.3581 40.1072 35.7156 39.5877C35.2017 39.1982 26.0795 33.3546 22.8674 30.4977C21.968 29.7186 20.9401 28.1603 22.9958 26.3423L36.4866 13.3566C38.0284 11.7983 39.5701 8.16227 33.146 12.5774L15.1585 24.9139C15.1585 24.9139 13.1027 26.2124 9.24834 25.0437L0.89693 22.4466C0.89693 22.4466 -2.18666 20.4987 3.08113 18.5508C15.9294 12.4475 31.7328 6.21432 45.7373 0.370788Z" fill="#A5D3C6"/>
</svg>
