<?xml version="1.0" encoding="UTF-8"?>
<svg id="_Слой_1" data-name="Слой_1" xmlns="http://www.w3.org/2000/svg" version="1.1" viewBox="0 0 1024 1024">
  <!-- Generator: Adobe Illustrator 29.8.2, SVG Export Plug-In . SVG Version: 2.1.1 Build 3)  -->
  <defs>
    <style>
      .st0 {
        fill: #59b994;
      }

      .st1 {
        fill: #fdfdfd;
      }
    </style>
  </defs>
  <rect class="st0" width="1024" height="1024"/>
  <g>
    <path d="M212.7,461.6h65.5c16.3-3.1,36.1-8.6,57.5-18.7,44.5-21.1,72.5-51.4,87.5-70.6,4.6-.7,9.3-1.4,13.9-2.1,14.4-7.8,37.3-20,65.9-34.7,35.1-18,45-22.4,58-32.7,14.1-11.2,33.5-30.5,49.1-64.5-.2,12.2-2.1,29.5-9.8,48.5-16.1,39.4-46.7,59.7-58.8,66.9-28.5,4.9-51.3,12.8-67.5,19.5-18.6,7.8-39.9,16.9-62,36.6-7.4,6.6-12.9,12.6-16.7,17,33.1-24.1,62.4-37.1,83-44.4,36.4-12.9,54.8-11.8,103.4-30.1,25-9.4,39.8-15,57.1-26.8,32.8-22.3,51.4-51.1,61.5-70.3-.6,30-8.9,51.3-14.7,63.1,0,0-22.9,46.4-75.9,75.2-2.6,1.4-13.9,7.4-29.1,16.4-7.8,4.6-14.2,8.6-18.3,11.2,12.7-.7,36.9-3.9,62.2-19.2,18.3-11.1,30.3-24.4,37.3-33.6,73.8,8.5,133.1,52.4,149.4,110.6,22.6,80.9-48.6,151.6-60.4,163.4-54.6,54.3-136.6,74.9-201.2,91.1-19.9,5-59.1,13.9-106.3,39-22.6,12-39.9,24.2-51.4,32.9,21.8-32.5,44.3-52.8,60.8-65.4,32.5-24.8,63.6-36.2,109.1-72.8,9.5-7.6,25.9-21.4,33.7-44.7,4-11.9,4.5-22.6,4.3-29.5-.2-1.8-.9-13.5,7.7-21.8,5.7-5.4,12.4-6.4,15.7-6.8,13.3-1.7,23.4,5.6,26.1,7.7.3-6.9,0-16.6-3.1-27.6-5-17.8-14.5-29.8-20.3-35.9l39.6-17.5c-8-5.1-21.4-12.2-39.3-15-30.5-4.8-54.6,5.8-63.6,10.4,7.7-2.2,22.6-5.3,39.7-.3,6.1,1.8,11.2,4.2,15.3,6.6-6.6,4.6-14.8,11.9-14,19.8.5,5,4.5,7.8,11.4,15,4.7,4.9,10.9,12.2,17.4,22.1-7.4-3.2-19-7.3-33.8-8.3-14.9-1-27,1.4-34.8,3.5,5.3-.3,14.1,0,24,3.8,6.1,2.4,10.8,5.5,14.1,8.1-5.8,2-17.1,6.8-21.5,17.5-1.7,4.2-1.8,7.8-1.5,16.4.3,8.5.9,19.8,2.2,33.5-7.3-4.1-23.2-11.8-44.5-11.7-26.6.1-45.2,12.1-51.9,16.9-11.3-6.1-42.1-20.7-82-15.2-25.1,3.5-43.6,13.6-54.1,20.4-4.5,3.1-12.6,9.5-18.7,20.6-7.1,12.9-7.5,25.1-7.4,30.6-6.7-1.5-29.9-7.7-46.3-29.8-11.3-15.1-14.1-30.6-14.9-38.1,4.6-5.8,12.5-14.4,24.8-21.5,12.5-7.3,23.4-9.4,34.6-11.5,30.6-5.7,37.5,1.5,62.4-6.3,12.3-3.9,20.6-8.8,25.1-11.8,8.3-5.5,14.4-11.4,18.4-15.8-9.2,4.5-17,7.8-22.6,10.1-9.3,3.8-14.1,5.7-20.1,7.1-9.6,2.1-17.9,1.9-23.5,1.3-8.4-.6-20.5-1.1-35.2-.6-17.1.7-27,1-36.4,4-7.3,2.3-27.4,10.4-43.5,42.2-9.4-12.6-21.2-31.8-29-57.4-12.7-41.8-7.6-77.8-3.6-96Z"/>
    <g>
      <path class="st0" d="M376.7,500.1c10.8-9.5,26-20.9,45.9-31,20.4-10.3,39.2-15.8,53.4-18.9-.3,8.8-2.3,23.3-12.3,35.6-17.6,21.7-52.9,28.2-87.1,14.3Z"/>
      <path d="M418.3,471.4c0,2.4.6,6.8,3.3,11.5,4.3,7.3,11.1,9.9,13.2,10.6-1.8-2.5-5.8-9-5.8-17.8,0-4.5,1-8.1,2-10.6-2.3.7-5,1.8-7.9,3.3-1.8,1-3.4,2-4.8,3Z"/>
    </g>
    <path class="st0" d="M310.6,586.3c-2.8.6-5.8,1.5-9.1,2.6-2.9,1-5.6,2-7.9,3.1.7,3.3,2.2,8.5,5.8,13.9,4.4,6.6,9.8,10.2,12.8,12-1-4.6-1.9-10.1-2.2-16.4-.3-5.7,0-10.8.5-15.1Z"/>
  </g>
  <path class="st1" d="M-1835,2837.1c-5.3.7-20.2,3.3-33.3,15.7-15,14.1-17.8,31.4-18.4,36.3,3.4-4.3,9.8-11,19.7-16.2,7.4-3.8,14.2-5.5,19-6.2.1-3.5.7-8.6,3-14.4,2.9-7.5,7.3-12.5,10.1-15.3Z"/>
</svg>