<?xml version="1.0" encoding="UTF-8"?>
<svg id="_Слой_1" data-name="Слой_1" xmlns="http://www.w3.org/2000/svg" version="1.1" viewBox="0 0 1024 1024">
  <!-- Generator: Adobe Illustrator 29.8.2, SVG Export Plug-In . SVG Version: 2.1.1 Build 3)  -->
  <defs>
    <style>
      .st0 {
        fill: none;
        stroke: #f5f5f5;
        stroke-width: 20px;
      }

      .st1 {
        fill: #eb5c21;
      }

      .st2 {
        fill: #f5f5f5;
      }
    </style>
  </defs>
  <rect class="st1" width="1024" height="1024"/>
  <g>
    <path class="st2" d="M412.1,626.6v-216l12.8-12.2h-26c-16.8,0-26.2,4.5-28.4,13.5h-9.1l-23.5-33.4c3.3-5.2,7.6-9.8,12.8-13.9,5.2-4.1,10.3-6.1,15.2-6.1h108.8c16.8,0,26.2-4.5,28.4-13.5h9.1l23.5,33.4c-3.3,5.2-7.6,9.8-12.8,13.9-5.2,4.1-10.3,6.1-15.2,6.1h-46.1v207.1c0,10.1,1.1,17.3,3.3,21.6,2.2,4.3,6.7,6.5,13.6,6.5v12.6l-84.5,35.1-6.6-13c6,0,11.8-3.5,17.3-10.6,4.9-6.8,7.4-17.1,7.4-31Z"/>
    <path class="st2" d="M610.5,414c30.2-18.2,47.5-27.3,51.9-27.3s11.3,5.6,20.8,16.7c9.5,11.1,14.2,21.2,14.2,30.2v126.8c0,1.9-10.9,7.2-32.7,15.9-21.8,8.7-39.9,15.2-54.2,19.6v41.2c0,10.1,1.1,17.3,3.3,21.6,2.2,4.3,6.7,6.5,13.6,6.5v12.6l-84.5,35.1-6.6-13c6,0,11.8-3.5,17.3-10.6,4.9-6.8,7.4-17.1,7.4-31v-211.2c0-16.6-5.6-26-16.9-28.1v-9l41.6-23.2c5.5,2.2,11,6.1,16.5,11.8,5.5,5.7,8.2,10.9,8.2,15.5ZM626.5,425.8c-4.9,0-10.3,2-16.1,6.1v144.7c7.1,0,15.1-2.2,23.9-6.7,8.8-4.5,13.2-9.2,13.2-14.1v-99.9c0-20.1-7-30.2-21-30.2Z"/>
    <circle class="st0" cx="512" cy="512" r="268"/>
  </g>
</svg>