<?xml version="1.0" encoding="UTF-8"?>
<svg id="_Слой_2" data-name="Слой 2" xmlns="http://www.w3.org/2000/svg" viewBox="0 0 1024 1024">
  <defs>
    <style>
      .cls-1 {
        fill: #6ead8e;
      }

      .cls-2 {
        fill: none;
        stroke: #6ead8e;
        stroke-miterlimit: 10;
        stroke-width: 2px;
      }

      .cls-3 {
        fill: #4c755e;
      }

      .cls-4 {
        font-family: Arial-Black, Arial;
        font-size: 82px;
        font-weight: 800;
      }

      .cls-4, .cls-5 {
        fill: #f0fffd;
      }

      .cls-6 {
        fill: #191919;
      }
    </style>
  </defs>
  <g id="_Слой_1-2" data-name="Слой 1">
    <g>
      <rect class="cls-6" width="1024" height="1024"/>
      <g>
        <g>
          <circle class="cls-1" cx="498.41" cy="512.31" r="268.04"/>
          <text class="cls-4" transform="translate(368.29 541.66)"><tspan x="0" y="0">ЛБРИ</tspan></text>
          <g>
            <path class="cls-3" d="M498.41,309.43c-72.56-.23-140.46,38.25-177.83,100.41-49.06,81.03-36.07,186.56,30.94,253.48,90.79,90.63,240.15,78.71,315.72-24.87,1.43-2.02,5.12-7.51,6.5-9.49,1.34-2.15,4.6-7.63,5.97-9.84,0,0,3.61-6.77,3.61-6.77,15.52-29.41,23.4-62.72,23.59-95.93-.09,33.23-7.87,66.6-23.32,96.07,0,0-3.6,6.79-3.6,6.79-1.36,2.24-4.64,7.72-5.95,9.87-1.3,1.98-5.12,7.47-6.48,9.53-75.63,104.3-225.66,116.45-317.11,25.7-102.47-102.76-72.58-275.04,58.23-337.68,18.55-8.79,38.63-14.93,58.92-17.95,10.2-1.52,20.5-2.17,30.81-2.32,0,0,0,3,0,3h0Z"/>
            <polygon class="cls-5" points="519.18 308.13 490.49 316.56 497.58 308.06 490.49 299.7 519.18 308.13"/>
          </g>
        </g>
        <g>
          <circle class="cls-2" cx="499.9" cy="512.31" r="303.79"/>
          <circle class="cls-5" cx="803.69" cy="512.31" r="23.89"/>
        </g>
      </g>
    </g>
  </g>
</svg>