<?xml version="1.0" encoding="UTF-8"?>
<svg id="_Слой_1" data-name="Слой_1" xmlns="http://www.w3.org/2000/svg" version="1.1" viewBox="0 0 1024 1024">
  <!-- Generator: Adobe Illustrator 29.8.2, SVG Export Plug-In . SVG Version: 2.1.1 Build 3)  -->
  <defs>
    <style>
      .st0 {
        fill: #a5d3c6;
      }
    </style>
  </defs>
  <rect class="st0" width="1024" height="1024"/>
  <g>
    <path d="M843.5,774.9c-25.9-1.8-57.9-1.8-94.2,3.1-39.8,5.3-73.4,15-99.3,24.5l38.8-44.9,37-32.2-45.2,28.1c-9.1,8.5-24.1,21.6-44.1,35.2-25.6,17.4-40.7,23-74.3,42.9-11.9,7.1-29.4,17.9-50.2,32.4-20.8-14.5-38.2-25.3-50.2-32.4-33.6-20-48.7-25.5-74.3-42.9-20.1-13.6-35-26.7-44.1-35.2l-45.2-28.1,37,32.2,38.8,44.9c-26-9.5-59.5-19.2-99.3-24.5-36.3-4.9-68.3-4.8-94.2-3.1,13.8-11.7,30.5-24.4,50.3-36.8,18.3-11.4,35.7-20.4,51.3-27.3l15.6-75.3c32.4,10.2,49.6,26.7,57.9,36.4,9.9,11.5,17.8,25.9,25.9,40.6,6.7,12.1,11.6,22.5,15,30l-42.1-22.2c11.7,11.5,28.4,25.7,50.6,38.6,21.6,12.5,41.6,19.8,57.2,24.2-13.8-7.7-34.8-21.7-54.4-45.2-18.8-22.6-28.7-44.9-33.9-59.6-7.8-7.6-15.9-15.4-24.6-23.1-10.9-9.9-21.7-19.1-32.2-27.6l-10.2-75.8,20.9,18.6c-.2-6.3-.3-12.6-.5-18.9-22.5-20.8-46.6-45.5-70.9-74.7-29.7-35.7-53-70.2-71.3-100.9,29.2,15.2,62.2,30.4,99.1,44.4,25.6,9.8,50.1,17.8,73.3,24.5-8.4-5-16.8-10-25.3-15.1,14.2-8.5,34.1-22.4,53.1-44,18.6-21,29.7-41.8,40.8-66.9,14.1-32,34-84.8,48.3-158.7,2.7,38.6,2.9,85.2-3.6,137.4-4.5,36.2-11.3,68.7-18.9,97,12.1-25.5,24.2-55.4,34.7-89.4,13.9-45.1,21.4-86.2,25.4-121,4,34.8,11.5,75.9,25.4,121,10.5,34,22.6,63.8,34.7,89.4-7.6-28.3-14.4-60.8-18.9-97-6.4-52.2-6.3-98.7-3.6-137.4,14.3,73.8,34.3,126.7,48.3,158.7,11.1,25.2,22.2,45.9,40.8,66.9,19,21.6,38.9,35.5,53.1,44-8.4,5-16.8,10-25.3,15.1,23.1-6.7,47.7-14.8,73.3-24.5,36.8-14,69.9-29.3,99.1-44.4-18.3,30.8-41.7,65.3-71.3,100.9-24.3,29.2-48.4,54-70.9,74.7-.2,6.3-.3,12.6-.5,18.9l20.9-18.6-10.2,75.8c-10.5,8.5-21.2,17.7-32.2,27.6-8.6,7.8-16.8,15.5-24.6,23.1-5.2,14.7-15.1,37-33.9,59.6-19.5,23.5-40.6,37.4-54.4,45.2,15.5-4.4,35.6-11.8,57.2-24.2,22.2-12.8,38.9-27,50.5-38.6l-42.1,22.2c3.4-7.5,8.3-17.9,15-30,8.1-14.7,16-29.1,25.9-40.6,8.3-9.6,25.5-26.1,57.9-36.4l15.6,75.3c15.6,7,33,15.9,51.3,27.3,19.8,12.3,36.5,25,50.3,36.8Z"/>
    <path class="st0" d="M512,278.7v439.2c7.2-32.8,20.5-75.7,46.3-121.3,14.5-25.6,30-47,44.4-64.3-.8,9.4-2.7,21.3-7.2,34.5-3.2,9.3-7,17.2-10.6,23.7,28-11.5,61.6-28.6,96.6-53.9,59.1-42.8,96.7-91.2,119.1-125.7-24.8,13.8-54.8,27.9-89.6,39.7-18.5,6.3-36.1,11.2-52.6,15-9.4,6.8-18.7,13.6-28.1,20.4-16.4-11-38.1-28.4-57.3-54.6-17.2-23.4-25.3-44.2-36.8-73.5-7.6-19.5-16.8-46.2-24.3-79Z"/>
    <path class="st0" d="M248.1,421.4c19.9,8.8,41.7,17.4,65.3,25.6,22.1,7.7,43.3,14,63.2,19.3-3.8,1.7-7.7,3.4-11.6,5.3-4.4,2.1-8.6,4.1-12.7,6.2,8.1,7.9,16.8,17.3,25.3,28.3,16.3,21.2,26.9,41.8,34,58.7-6.9-8.9-17.6-21.9-32.3-36.3-22.1-21.8-39.7-33.4-60.8-49.1-17.4-12.9-41.9-32.1-70.5-58Z"/>
  </g>
</svg>