<?xml version="1.0" encoding="UTF-8"?>
<svg id="_Слой_2" data-name="Слой 2" xmlns="http://www.w3.org/2000/svg" viewBox="0 0 1024 1024">
  <defs>
    <style>
      .cls-1 {
        fill: #a5d3c6;
      }

      .cls-2 {
        fill: #1e1c17;
      }
    </style>
  </defs>
  <g id="_Слой_1-2" data-name="Слой 1">
    <rect class="cls-1" width="1024" height="1024"/>
    <g>
      <g>
        <path class="cls-2" d="M740.05,217.24c10.61,12.32,37.64,47.13,39.79,97.51,3.8,88.97-73.57,142.43-78.62,145.79,8.68,15.52,25.13,50.3,19.89,93.72-4.05,33.55-19.14,56.42-32.21,75.74-30.03,44.39-57.37,55.69-115.57,106.03-17.55,15.18-43.78,39-73.89,71.2v-62.36c6.69-8.63,17.14-21.3,31.26-35.35,18.52-18.41,31.48-27.36,44.52-37.87,26.3-21.19,55.96-45.08,71.05-76.68,6.75-14.15,18.48-46.39,5.68-97.51-19.13,14.46-43.83,36.25-67.26,67.22-25,33.04-39.65,64.76-48.31,88.04-4.42,1.26-8.84,2.52-13.26,3.79-.25-38.51,8.34-67.54,15.16-85.2,10.46-27.09,23.96-46.14,39.79-68.16,17.98-25.02,31.39-38.89,47.36-56.8,56.87-63.79,89.28-100.13,105.15-151.47,5.04-16.3,11-42.51,9.47-77.63Z"/>
        <path class="cls-2" d="M582.39,598.94c1.71.72,23.04,9.21,42.4-4.18,14.09-9.75,21.56-27.24,19.23-44.97-16.52,4.82-43.66,15.93-58.2,42.13-1.29,2.32-2.43,4.67-3.42,7.02Z"/>
      </g>
      <g>
        <path class="cls-2" d="M284.89,217.24c-10.61,12.32-37.64,47.13-39.79,97.51-3.8,88.97,73.57,142.43,78.62,145.79-8.68,15.52-25.13,50.3-19.89,93.72,4.05,33.55,19.14,56.42,32.21,75.74,30.03,44.39,57.37,55.69,115.57,106.03,17.55,15.18,43.78,39,73.89,71.2v-62.36c-6.69-8.63-17.14-21.3-31.26-35.35-18.52-18.41-31.48-27.36-44.52-37.87-26.3-21.19-55.96-45.08-71.05-76.68-6.75-14.15-18.48-46.39-5.68-97.51,19.13,14.46,43.83,36.25,67.26,67.22,25,33.04,39.65,64.76,48.31,88.04,4.42,1.26,8.84,2.52,13.26,3.79.25-38.51-8.34-67.54-15.16-85.2-10.46-27.09-23.96-46.14-39.79-68.16-17.98-25.02-31.39-38.89-47.36-56.8-56.87-63.79-89.28-100.13-105.15-151.47-5.04-16.3-11-42.51-9.47-77.63Z"/>
        <path class="cls-2" d="M442.55,598.94c-1.71.72-23.04,9.21-42.4-4.18-14.09-9.75-21.56-27.24-19.23-44.97,16.52,4.82,43.66,15.93,58.2,42.13,1.29,2.32,2.43,4.67,3.42,7.02Z"/>
      </g>
    </g>
  </g>
</svg>