<?xml version="1.0" encoding="UTF-8"?>
<svg id="_Слой_1" data-name="Слой 1" xmlns="http://www.w3.org/2000/svg" viewBox="0 0 800 800">
  <defs>
    <style>
      .cls-1 {
        fill: #000;
      }

      .cls-1, .cls-2 {
        stroke-width: 0px;
      }

      .cls-3 {
        letter-spacing: 1.19em;
      }

      .cls-2 {
        fill: #4fb2a6;
      }

      .cls-4 {
        fill: #d0eff4;
        font-family: BergamascoBold-Bold, 'Bergamasco Bold';
        font-size: 46.94px;
        font-weight: 700;
      }
    </style>
  </defs>
  <rect class="cls-1" width="800" height="800"/>
  <g>
    <g>
      <path class="cls-2" d="M558.19,383.92l-2.21,2.21c-86.12,86.04-225.74,86.04-311.86,0l-2.31-2.31,2.21-2.21c86.12-86.04,225.74-86.04,311.86,0l2.31,2.31Z"/>
      <path class="cls-1" d="M486.63,402.72c0,.22-.27.32-.81.32-.97,0-2.05-.32-3.23-.97-4.43-2.48-7.9-5.82-10.44-10.02-2.53-4.21-4.88-8.95-7.03-14.23-1.73-4.21-3.72-8.52-5.99-12.94-8.41-15.74-18.23-26.79-29.44-33.15-9.28-5.28-19.2-7.93-29.77-7.93h-.16c-10.89,0-20.87,2.7-29.93,8.09-9.06,5.39-16.26,12.56-21.6,21.51-5.34,8.95-8.12,18.98-8.33,30.08v.65c0,15.96,5.82,30.03,17.47,42.21,12.4,11.75,26.58,17.63,42.55,17.63,10.57,0,20.49-2.59,29.77-7.77,5.5-3.12,10.35-7.01,14.56-11.64,8.09,6.15,17.15,9.22,27.18,9.22,11,0,20.65-3.48,28.96-10.43,8.3-6.96,13.59-15.93,15.86-26.93.97-5.06,1.45-9.21,1.45-12.45,0-6.03-.43-11.91-1.29-17.63-1.84-11.54-5.18-22.53-10.03-33-.43-.97-.92-1.88-1.45-2.75-9.92-19.3-24.1-34.82-42.55-46.58-19.41-11.86-40.23-17.79-62.44-17.79-15.64,0-30.6,2.97-44.89,8.89-14.29,5.93-27.05,14.45-38.26,25.56-22.97,23.94-34.46,51.7-34.46,83.29s11.49,59.09,34.46,83.13c11.21,11.1,23.97,19.63,38.26,25.55,14.29,5.93,29.25,8.89,44.89,8.89,19.3,0,37.64-4.53,55-13.58,16.6-8.95,30.36-21.03,41.25-36.23l10.03-14.39h-26.37l-2.59,4.36c-2.48,3.99-5.34,7.6-8.57,10.84-12.19,11.97-27.61,17.95-46.27,17.95-13.16,0-26.26-2.94-39.31-8.81-13.05-5.87-25.02-14.2-35.92-24.99-18.76-19.3-29.82-40.86-33.17-64.69-.43-3.56-.64-7.06-.64-10.51,0-18.44,5.98-33.86,17.96-46.25,12.3-11.97,27.72-17.95,46.27-17.95,13.16,0,26.26,2.94,39.31,8.81,13.05,5.88,25.02,14.21,35.92,24.99,3.56,3.67,6.9,7.5,10.03,11.48.54.54,1.03,1.13,1.46,1.78,1.94,2.7,3.83,5.5,5.66,8.41,6.04,9.38,10.41,19.14,13.11,29.27.43,1.29.86,2.75,1.29,4.37,1.29,3.56,2.21,7.17,2.75,10.83.22,1.08.32,2,.32,2.75,0,.87-.11,1.51-.32,1.94-.22.43-.38.7-.48.81Z"/>
    </g>
    <text class="cls-4" transform="translate(241.81 517.59)"><tspan class="cls-3" x="0" y="0">NEM</tspan><tspan x="278.3" y="0">O</tspan></text>
  </g>
</svg>