<svg width="32" height="36" viewBox="0 0 32 36" fill="none" xmlns="http://www.w3.org/2000/svg">
<path d="M29.6119 0C30.2465 0.736874 31.8632 2.8189 31.9918 5.83219C32.2191 11.1536 27.5915 14.3511 27.2894 14.5521C27.8086 15.4803 28.7925 17.5606 28.4791 20.1576C28.2368 22.1643 27.3343 23.5321 26.5525 24.6877C24.7564 27.3427 23.1212 28.0186 19.6402 31.0295C18.5905 31.9374 17.0216 33.3621 15.2207 35.288V31.5582C15.6208 31.042 16.2459 30.2842 17.0904 29.4439C18.1981 28.3428 18.9733 27.8074 19.7532 27.1788C21.3262 25.9114 23.1002 24.4825 24.0028 22.5925C24.4065 21.7462 25.1081 19.8179 24.3425 16.7603C23.1983 17.6252 21.721 18.9285 20.3196 20.7808C18.8243 22.757 17.9481 24.6542 17.4301 26.0466C17.1658 26.122 16.9014 26.1973 16.637 26.2733C16.6221 23.97 17.1359 22.2336 17.5438 21.1774C18.1694 19.5571 18.9768 18.4177 19.9237 17.1006C20.9991 15.6042 21.8011 14.7746 22.7563 13.7034C26.1578 9.88799 28.0963 7.71445 29.0455 4.64374C29.3469 3.66882 29.7034 2.10117 29.6119 0.000597784V0Z" fill="#1E1C17"/>
<path d="M20.1816 22.8299C20.2839 22.8729 21.5597 23.3807 22.7176 22.5799C23.5604 21.9967 24.0072 20.9506 23.8678 19.8901C22.8797 20.1784 21.2564 20.8429 20.3868 22.41C20.3096 22.5487 20.2415 22.6893 20.1822 22.8299H20.1816Z" fill="#1E1C17"/>
<path d="M2.38799 0C1.75339 0.736874 0.136696 2.8189 0.00810207 5.83219C-0.219181 11.1536 4.40841 14.3511 4.71046 14.5521C4.1913 15.4803 3.2074 17.5606 3.52082 20.1576C3.76305 22.1643 4.6656 23.5321 5.44734 24.6877C7.24347 27.3427 8.87871 28.0186 12.3597 31.0295C13.4094 31.9374 14.9783 33.3621 16.7792 35.288V31.5582C16.379 31.042 15.754 30.2842 14.9095 29.4439C13.8018 28.3428 13.0266 27.8074 12.2467 27.1788C10.6736 25.9114 8.89964 24.4825 7.99709 22.5925C7.59336 21.7462 6.89178 19.8179 7.65736 16.7603C8.80155 17.6252 10.2789 18.9285 11.6803 20.7808C13.1755 22.757 14.0518 24.6542 14.5697 26.0466C14.8341 26.122 15.0985 26.1973 15.3628 26.2733C15.3778 23.97 14.864 22.2336 14.4561 21.1774C13.8305 19.5571 13.023 18.4177 12.0762 17.1006C11.0008 15.6042 10.1987 14.7746 9.24356 13.7034C5.84209 9.88799 3.90361 7.71445 2.9544 4.64374C2.65295 3.66882 2.29648 2.10117 2.38799 0.000597784V0Z" fill="#1E1C17"/>
<path d="M11.8188 22.8299C11.7165 22.8729 10.4407 23.3807 9.28277 22.5799C8.44003 21.9967 7.99324 20.9506 8.1326 19.8901C9.12068 20.1784 10.744 20.8429 11.6136 22.41C11.6908 22.5487 11.759 22.6893 11.8182 22.8299H11.8188Z" fill="#1E1C17"/>
</svg>
