<?xml version="1.0" encoding="UTF-8"?>
<svg id="_Слой_1" data-name="Слой_1" xmlns="http://www.w3.org/2000/svg" version="1.1" viewBox="0 0 32 36">
  <!-- Generator: Adobe Illustrator 29.0.0, SVG Export Plug-In . SVG Version: 2.1.0 Build 186)  -->
  <defs>
    <style>
      .st0 {
        fill: #1e1c17;
      }
    </style>
  </defs>
  <path class="st0" d="M29.6,0c.6.7,2.3,2.8,2.4,5.8.2,5.3-4.4,8.5-4.7,8.7.5.9,1.5,3,1.2,5.6-.2,2-1.1,3.4-1.9,4.5-1.8,2.7-3.4,3.3-6.9,6.3-1,.9-2.6,2.3-4.4,4.3v-3.7c.4-.5,1-1.3,1.9-2.1,1.1-1.1,1.9-1.6,2.7-2.3,1.6-1.3,3.3-2.7,4.2-4.6.4-.8,1.1-2.8.3-5.8-1.1.9-2.6,2.2-4,4-1.5,2-2.4,3.9-2.9,5.3-.3,0-.5.2-.8.2,0-2.3.5-4,.9-5.1.6-1.6,1.4-2.8,2.4-4.1,1.1-1.5,1.9-2.3,2.8-3.4,3.4-3.8,5.3-6,6.3-9.1.3-1,.7-2.5.6-4.6h0Z"/>
  <path class="st0" d="M20.2,22.8c.1,0,1.4.6,2.5-.2.8-.6,1.3-1.6,1.2-2.7-1,.3-2.6,1-3.5,2.5,0,.1-.1.3-.2.4h0Z"/>
  <path class="st0" d="M2.4,0C1.8.7.1,2.8,0,5.8c-.2,5.3,4.4,8.5,4.7,8.7-.5.9-1.5,3-1.2,5.6.2,2,1.1,3.4,1.9,4.5,1.8,2.7,3.4,3.3,6.9,6.3,1,.9,2.6,2.3,4.4,4.3v-3.7c-.4-.5-1-1.3-1.9-2.1-1.1-1.1-1.9-1.6-2.7-2.3-1.6-1.3-3.3-2.7-4.2-4.6-.4-.8-1.1-2.8-.3-5.8,1.1.9,2.6,2.2,4,4,1.5,2,2.4,3.9,2.9,5.3.3,0,.5.2.8.2,0-2.3-.5-4-.9-5.1-.6-1.6-1.4-2.8-2.4-4.1-1.1-1.5-1.9-2.3-2.8-3.4-3.4-3.8-5.3-6-6.3-9.1C2.7,3.7,2.3,2.1,2.4,0h0Z"/>
  <path class="st0" d="M11.8,22.8c-.1,0-1.4.6-2.5-.2-.8-.6-1.3-1.6-1.2-2.7,1,.3,2.6,1,3.5,2.5,0,.1.1.3.2.4h0Z"/>
</svg>