<?xml version="1.0" encoding="UTF-8"?>
<svg id="_Слой_2" data-name="Слой 2" xmlns="http://www.w3.org/2000/svg" viewBox="0 0 393.03 84">
  <defs>
    <style>
      .cls-1 {
        fill: #000;
      }

      .cls-1, .cls-2, .cls-3 {
        stroke-width: 0px;
      }

      .cls-2 {
        fill: #1e1c17;
      }

      .cls-3 {
        fill: #ded0a1;
      }
    </style>
  </defs>
  <g id="_Слой_1-2" data-name="Слой 1">
    <g>
      <g>
        <path class="cls-3" d="M89.92,66h-5.94V18h-5.94v-6h5.94v-6h5.94V0h5.94v54h5.94v6h-5.94v6h-5.94Z"/>
        <path class="cls-3" d="M137.47,78v-18h-5.94v-6h5.94v-18h-5.94v-6h-5.94v-6h-5.94v30h5.94v6h5.94v6h-11.89v-6h-5.94v-6h-5.94v-24h5.94v-6h5.94v-6h11.89v6h5.94v-6h11.89v6h5.94v6h-5.94v42h-5.94v6h-5.94ZM131.52,78h5.94v6h-23.77v-6h-5.94v-12h11.89v6h5.94v6h5.94Z"/>
        <path class="cls-3" d="M202.84,66h-5.94V24h-5.94v6h-5.94v6h-5.94v18h5.94v6h-5.94v6h-11.89v-30h-5.94v-6h5.94v-6h5.94v-6h5.94v12h5.94v-6h5.94v-6h17.83v36h5.94v6h-5.94v6h-5.94Z"/>
        <path class="cls-3" d="M232.56,66h-5.94v-24h-5.94v-6h5.94v-6h5.94v-6h5.94v30h5.94v6h-5.94v6h-5.94ZM226.62,18V6h5.94V0h5.94v12h-5.94v6h-5.94Z"/>
        <path class="cls-3" d="M286.05,66h-5.94v-6h-5.94v6h-11.89v-6h-5.94v-6h-5.94v-30h5.94v-6h17.83v6h5.94v-12h-5.94v-6h5.94V0h11.89v54h5.94v6h-5.94v6h-5.94ZM274.16,54h5.94v-18h-5.94v-6h-5.94v-6h-5.94v24h5.94v6h5.94Z"/>
        <path class="cls-3" d="M315.77,66h-5.94v-30h-5.94v-6h5.94v-6h5.94v-6h5.94v12h5.94v6h-5.94v18h5.94v6h-5.94v6h-5.94ZM339.54,36h-5.94v-6h-5.94v-6h5.94v-6h5.94v6h5.94v12h-5.94Z"/>
        <path class="cls-3" d="M381.14,66h-23.77v-6h-5.94v-12h5.94v-6h5.94v-6h11.89v-6h-17.83v-6h5.94v-6h17.83v6h5.94v30h5.94v6h-5.94v6h-5.94ZM351.43,36v-6h5.94v6h-5.94ZM369.26,60h5.94v-18h-11.89v18h5.94Z"/>
      </g>
      <g>
        <rect class="cls-3" width="66" height="66"/>
        <g>
          <polygon class="cls-2" points="38.36 47.72 33 51.7 27.64 47.72 27.64 47.72 33 15.88 38.36 47.72 38.36 47.72"/>
          <g>
            <g>
              <path class="cls-2" d="M14.87,4.03c-1.14,1.78-4.5,7.51-3.85,15.38.72,8.6,5.73,13.97,7.14,15.38l-3.57,3.75,18.4,23.42v-10.22l-9.06-15.59,1.1-4.94c-2.44-2.35-7.25-7.66-9.34-15.93-1.14-4.52-1.1-8.48-.82-11.26Z"/>
              <path class="cls-1" d="M26.72,58.16c-.36.15-4.85,1.89-8.93-.86-2.97-2-4.54-5.6-4.05-9.23,3.48.99,9.2,3.27,12.26,8.65.27.48.51.96.72,1.44Z"/>
            </g>
            <g>
              <path class="cls-2" d="M51.13,4.03c1.14,1.78,4.5,7.51,3.85,15.38-.72,8.6-5.73,13.97-7.14,15.38l3.57,3.75-18.4,23.42v-10.22l9.06-15.59-1.1-4.94c2.44-2.35,7.25-7.66,9.34-15.93,1.14-4.52,1.1-8.48.82-11.26Z"/>
              <path class="cls-1" d="M39.28,58.16c.36.15,4.85,1.89,8.93-.86,2.97-2,4.54-5.6,4.05-9.23-3.48.99-9.2,3.27-12.26,8.65-.27.48-.51.96-.72,1.44Z"/>
            </g>
          </g>
        </g>
      </g>
    </g>
  </g>
</svg>