<?xml version="1.0" encoding="UTF-8"?>
<svg id="_Слой_1" data-name="Слой 1" xmlns="http://www.w3.org/2000/svg" width="225.54" height="35.54" viewBox="0 0 225.54 35.54">
  <defs>
    <style>
      .cls-1 {
        fill: #5daddc;
      }

      .cls-1, .cls-2 {
        stroke-width: 0px;
      }

      .cls-2 {
        fill: #fff;
      }
    </style>
  </defs>
  <path class="cls-1" d="M0,.6h10.64v34.36H0V.6Z"/>
  <path class="cls-1" d="M35.53,22.51v-7.15h16.41v14.65c-3.14,2.14-5.92,3.6-8.33,4.37s-5.28,1.16-8.59,1.16c-4.08,0-7.4-.7-9.97-2.09s-4.56-3.46-5.98-6.21-2.12-5.91-2.12-9.47c0-3.75.77-7.01,2.32-9.79s3.81-4.88,6.8-6.32c2.33-1.11,5.46-1.66,9.4-1.66s6.64.34,8.52,1.03,3.45,1.75,4.69,3.2,2.18,3.28,2.8,5.5l-10.24,1.83c-.42-1.3-1.14-2.29-2.14-2.98s-2.29-1.03-3.86-1.03c-2.33,0-4.18.81-5.57,2.43-1.39,1.62-2.07,4.18-2.07,7.68,0,3.72.7,6.38,2.1,7.97s3.35,2.39,5.85,2.39c1.19,0,2.32-.17,3.4-.52s2.31-.93,3.7-1.76v-3.23h-7.12Z"/>
  <path class="cls-1" d="M58.31.6h9.91l12.94,19.01V.6h10.01v34.36h-10.01l-12.87-18.87v18.87h-9.98V.6Z"/>
  <path class="cls-1" d="M98.65.6h10.64v34.36h-10.64V.6Z"/>
  <path class="cls-2" d="M117.05.6h15.77c3.11,0,5.62.42,7.54,1.27s3.5,2.05,4.75,3.63,2.16,3.41,2.72,5.51.84,4.31.84,6.66c0,3.67-.42,6.52-1.25,8.54s-2,3.72-3.48,5.09-3.08,2.28-4.78,2.73c-2.33.62-4.44.94-6.33.94h-15.77V.61h0ZM127.66,8.38v18.77h2.6c2.22,0,3.8-.25,4.73-.74s1.67-1.35,2.2-2.58.8-3.21.8-5.96c0-3.64-.59-6.13-1.78-7.48s-3.16-2.02-5.91-2.02h-2.65.01Z"/>
  <path class="cls-2" d="M154.38,34.95V.59h17.7c3.28,0,5.79.28,7.52.84s3.13,1.61,4.2,3.13,1.59,3.38,1.59,5.57c0,1.91-.41,3.55-1.22,4.93-.81,1.38-1.93,2.5-3.35,3.36-.91.55-2.15,1-3.73,1.36,1.26.42,2.19.84,2.76,1.27.39.28.96.88,1.7,1.81s1.24,1.63,1.49,2.13l5.14,9.96h-12l-5.67-10.5c-.72-1.36-1.36-2.24-1.92-2.65-.77-.53-1.63-.8-2.6-.8h-.94v13.95h-10.67ZM165.05,14.52h4.48c.48,0,1.42-.16,2.81-.47.7-.14,1.28-.5,1.72-1.08s.67-1.24.67-1.99c0-1.11-.35-1.96-1.05-2.55s-2.02-.89-3.96-.89h-4.66v6.98h0Z"/>
  <path class="cls-2" d="M212.7,29.28h-12.05l-1.67,5.67h-10.84L201.05.59h11.58l12.91,34.36h-11.12l-1.72-5.67h0ZM210.5,21.85l-3.79-12.35-3.75,12.35h7.55-.01Z"/>
</svg>