<svg width="450" height="195" viewBox="0 0 450 195" fill="none" xmlns="http://www.w3.org/2000/svg">
<path d="M444.32 75H5.68018V188.872H444.32V75Z" stroke="white" stroke-width="9" stroke-miterlimit="10"/>
<path d="M117.581 93.6537L48.4839 0L69.1094 63.7558L84.8247 68.6018L95.2132 83.5696L117.581 93.6537Z" fill="#919191"/>
<path d="M80.3561 139.063C79.9775 136.811 79.0308 131.434 81.6815 129.27C86.0111 125.728 96.9045 132.94 98.0784 133.724C100.54 135.394 102.862 137.52 107.457 141.771C110.234 144.314 112.43 146.478 113.907 147.983C122.226 140.152 130.531 132.32 138.85 124.526L117.48 93.5651L21.1303 16.0813C34.8765 36.0469 48.6479 55.9999 62.394 75.9655C55.8681 76.9271 47.3982 80.3053 38.5118 86.505C25.6871 95.463 19.603 106.42 16.2327 112.885C3.63526 136.761 5.79374 159.851 6.77831 168.518C7.68715 176.515 9.40384 183.056 10.7671 187.522H119.449C109.313 179.273 83.5371 156.941 80.3435 139.063H80.3561ZM108.214 108.976C108.48 109.482 108.745 109.975 108.972 110.481C108.593 110.646 103.923 112.481 99.6689 109.57C96.589 107.445 94.9606 103.649 95.4529 99.8154C99.063 100.853 105.021 103.27 108.202 108.988L108.214 108.976Z" fill="white"/>
<path d="M146.133 110.633H159.564V154.107H146.133V110.633Z" fill="#FAFAFA"/>
<path d="M190.982 138.355V129.308H211.696V147.844C207.732 150.552 204.223 152.399 201.181 153.373C198.139 154.348 194.516 154.841 190.338 154.841C185.188 154.841 180.997 153.955 177.753 152.197C174.509 150.438 171.997 147.819 170.205 144.34C168.412 140.86 167.529 136.862 167.529 132.358C167.529 127.613 168.501 123.488 170.457 119.971C172.414 116.453 175.267 113.796 179.041 111.974C181.982 110.57 185.933 109.874 190.906 109.874C195.879 109.874 199.288 110.304 201.661 111.177C204.034 112.05 206.015 113.392 207.581 115.226C209.146 117.061 210.332 119.376 211.115 122.185L198.189 124.5C197.659 122.856 196.75 121.603 195.488 120.73C194.226 119.857 192.598 119.427 190.616 119.427C187.675 119.427 185.339 120.452 183.585 122.501C181.83 124.551 180.972 127.79 180.972 132.218C180.972 136.925 181.856 140.291 183.623 142.302C185.39 144.314 187.851 145.326 191.007 145.326C192.509 145.326 193.936 145.111 195.299 144.668C196.662 144.226 198.215 143.492 199.969 142.442V138.355H191.007H190.982Z" fill="#FAFAFA"/>
<path d="M219.736 110.633H232.245L248.579 134.686V110.633H261.215V154.107H248.579L232.334 130.232V154.107H219.736V110.633Z" fill="#FAFAFA"/>
<path d="M270.656 110.633H284.087V154.107H270.656V110.633Z" fill="#FAFAFA"/>
<path d="M293.882 110.633H313.788C317.714 110.633 320.882 111.165 323.306 112.24C325.729 113.316 327.724 114.834 329.302 116.833C330.88 118.832 332.028 121.148 332.735 123.805C333.442 126.462 333.795 129.258 333.795 132.231C333.795 136.875 333.265 140.481 332.218 143.036C331.17 145.592 329.693 147.743 327.825 149.476C325.957 151.21 323.937 152.361 321.791 152.931C318.85 153.715 316.187 154.12 313.801 154.12H293.895V110.646L293.882 110.633ZM307.275 120.477V144.226H310.557C313.359 144.226 315.354 143.909 316.527 143.289C317.701 142.669 318.635 141.581 319.304 140.025C319.973 138.469 320.314 135.964 320.314 132.484C320.314 127.879 319.57 124.728 318.067 123.02C316.565 121.312 314.079 120.464 310.607 120.464H307.262L307.275 120.477Z" fill="#FAFAFA"/>
<path d="M341.003 154.107V110.633H363.345C367.485 110.633 370.654 110.988 372.837 111.696C375.021 112.405 376.788 113.733 378.139 115.656C379.49 117.58 380.146 119.933 380.146 122.704C380.146 125.12 379.628 127.195 378.606 128.941C377.584 130.687 376.17 132.105 374.377 133.193C373.229 133.889 371.664 134.458 369.669 134.913C371.26 135.445 372.434 135.976 373.153 136.52C373.645 136.875 374.365 137.634 375.299 138.81C376.233 139.987 376.864 140.873 377.18 141.505L383.668 154.107H368.52L361.363 140.822C360.455 139.101 359.647 137.988 358.94 137.469C357.968 136.799 356.882 136.457 355.658 136.457H354.471V154.107H341.016H341.003ZM354.471 128.246H360.126C360.732 128.246 361.919 128.043 363.673 127.651C364.557 127.474 365.289 127.018 365.844 126.284C366.4 125.551 366.69 124.716 366.69 123.767C366.69 122.362 366.248 121.287 365.365 120.54C364.481 119.794 362.815 119.414 360.366 119.414H354.484V128.246H354.471Z" fill="#FAFAFA"/>
<path d="M414.619 146.933H399.408L397.3 154.107H383.617L399.913 110.633H414.53L430.826 154.107H416.79L414.619 146.933ZM411.842 137.532L407.058 121.907L402.324 137.532H411.854H411.842Z" fill="#FAFAFA"/>
</svg>
