<?xml version="1.0" encoding="UTF-8"?>
<svg id="_Слой_2" data-name="Слой 2" xmlns="http://www.w3.org/2000/svg" viewBox="0 0 356.5 154.12">
  <defs>
    <style>
      .cls-1 {
        font-family: Arial-Black, Arial;
        font-size: 48px;
        font-weight: 800;
      }

      .cls-1, .cls-2 {
        fill: #919191;
      }

      .cls-3 {
        fill: none;
        stroke: #919191;
        stroke-miterlimit: 10;
        stroke-width: 9px;
      }

      .cls-2 {
        stroke-width: 0px;
      }
    </style>
  </defs>
  <g id="_Слой_1-2" data-name="Слой 1">
    <g>
      <rect class="cls-3" x="4.5" y="59.62" width="347.5" height="90"/>
      <polygon class="cls-2" points="93.15 74.02 38.41 0 54.75 50.39 67.2 54.22 75.43 66.05 93.15 74.02"/>
      <path class="cls-2" d="M63.66,109.91c-.3-1.78-1.05-6.03,1.05-7.74,3.43-2.8,12.06,2.9,12.99,3.52,1.95,1.32,3.79,3,7.43,6.36,2.2,2.01,3.94,3.72,5.11,4.91,6.59-6.19,13.17-12.38,19.76-18.54l-16.93-24.47L16.74,12.71c10.89,15.78,21.8,31.55,32.69,47.33-5.17.76-11.88,3.43-18.92,8.33-10.16,7.08-14.98,15.74-17.65,20.85-9.98,18.87-8.27,37.12-7.49,43.97.72,6.32,2.08,11.49,3.16,15.02h86.1c-8.03-6.52-28.45-24.17-30.98-38.3ZM85.73,86.13c.21.4.42.79.6,1.19-.3.13-4,1.58-7.37-.72-2.44-1.68-3.73-4.68-3.34-7.71,2.86.82,7.58,2.73,10.1,7.25Z"/>
      <text class="cls-1" transform="translate(111.83 121.8)"><tspan x="0" y="0">IGNIDRA</tspan></text>
    </g>
  </g>
</svg>