<?xml version="1.0" encoding="UTF-8"?>
<svg id="_Слой_2" data-name=" Слой 2" xmlns="http://www.w3.org/2000/svg" version="1.1" viewBox="0 0 20.5 29.2">
  <defs>
    <style>
      .cls-1 {
        fill: #1a9fff;
      }

      .cls-2 {
        fill: #146893;
      }
    </style>
  </defs>
  <polygon class="cls-2" points="17.2 14.6 6.6 0 9.8 9.9 12.2 10.7 13.8 13 17.2 14.6"/>
  <path class="cls-1" d="M1.6,17.6c.5-1,1.5-2.7,3.5-4.1,1.4-1,2.7-1.5,3.7-1.6-2.1-3.1-4.3-6.2-6.4-9.3l14.9,12.1,3.3,4.8c-1.3,1.2-2.6,2.4-3.9,3.7-.2-.2-.6-.6-1-1-.7-.7-1.1-1-1.4-1.2-.2-.1-1.9-1.2-2.5-.7-.4.3-.3,1.2-.2,1.5.5,2.8,4.5,6.3,6,7.5H.7c-.2-.7-.5-1.7-.6-3-.2-1.4-.5-4.9,1.5-8.7h0ZM14.5,17.1c.7.5,1.4.2,1.4.1,0,0,0-.2-.1-.2-.5-.9-1.4-1.3-2-1.4,0,.6.2,1.2.6,1.5h0Z"/>
</svg>