<?xml version="1.0" encoding="UTF-8"?>
<svg id="_Слой_2" data-name="Слой 2" xmlns="http://www.w3.org/2000/svg" viewBox="0 0 606.33 566.9">
  <defs>
    <style>
      .cls-1 {
        fill: #000;
      }

      .cls-1, .cls-2 {
        stroke-width: 0px;
      }

      .cls-2 {
        fill: #59b994;
      }
    </style>
  </defs>
  <g id="_Слой_1-2" data-name="Слой 1">
    <g>
      <path class="cls-1" d="M4.44,223.31h65.52c16.25-3.08,36.14-8.57,57.46-18.65,44.5-21.06,72.55-51.42,87.51-70.62,4.64-.72,9.28-1.43,13.92-2.15,14.37-7.76,37.27-19.99,65.93-34.71,35.06-18,44.96-22.37,57.99-32.68,14.11-11.16,33.47-30.55,49.14-64.5-.2,12.16-2.07,29.51-9.83,48.53-16.06,39.38-46.68,59.71-58.8,66.87-28.51,4.89-51.33,12.78-67.51,19.54-18.6,7.77-39.92,16.88-62,36.57-7.36,6.56-12.93,12.62-16.69,17,33.09-24.14,62.44-37.06,83.03-44.38,36.36-12.93,54.81-11.75,103.4-30.1,25.02-9.45,39.79-15.02,57.13-26.82,32.82-22.34,51.45-51.06,61.53-70.28-.55,30.02-8.92,51.26-14.74,63.07,0,0-22.91,46.45-75.86,75.2-2.64,1.43-13.86,7.37-29.08,16.38-7.84,4.64-14.18,8.59-18.33,11.21,12.68-.74,36.93-3.9,62.25-19.25,18.35-11.12,30.3-24.43,37.27-33.58,63.25-.32,119.76,34.1,142.61,87.07,28.51,66.06-12.08,132.55-19.11,144-55.34,90.17-183.52,121.28-235.81,133.97-16.7,4.05-57.61,13.14-106.27,39.01-22.56,11.99-39.94,24.2-51.4,32.92,21.8-32.47,44.33-52.84,60.81-65.42,32.5-24.8,63.58-36.16,109.14-72.84,9.49-7.64,25.87-21.42,33.68-44.69,4.01-11.94,4.49-22.57,4.3-29.49-.15-1.82-.94-13.54,7.67-21.76,5.68-5.42,12.38-6.38,15.68-6.81,13.26-1.71,23.42,5.6,26.11,7.68.35-6.92.01-16.62-3.07-27.64-4.98-17.78-14.55-29.78-20.27-35.94l39.62-17.51c-8.01-5.14-21.42-12.22-39.31-15.05-30.52-4.82-54.56,5.83-63.63,10.44,7.65-2.21,22.59-5.28,39.67-.31,6.12,1.78,11.23,4.22,15.31,6.6-6.55,4.63-14.8,11.91-13.97,19.81.53,5.05,4.5,7.8,11.36,15.05,4.67,4.93,10.92,12.2,17.4,22.11-7.35-3.21-18.99-7.25-33.79-8.29-14.87-1.04-27.01,1.37-34.76,3.53,5.26-.29,14.09-.06,23.96,3.84,6.13,2.42,10.83,5.54,14.13,8.14-5.8,1.97-17.08,6.8-21.5,17.51-1.71,4.15-1.82,7.8-1.54,16.43.28,8.46.86,19.85,2.2,33.48-7.28-4.11-23.16-11.77-44.54-11.67-26.55.12-45.25,12.14-51.91,16.89-11.27-6.06-42.15-20.7-82-15.16-25.11,3.49-43.65,13.58-54.06,20.38-4.48,3.06-12.64,9.5-18.74,20.58-7.12,12.94-7.53,25.1-7.37,30.61-6.71-1.53-29.86-7.68-46.33-29.84-11.25-15.14-14.05-30.58-14.9-38.14,4.56-5.76,12.54-14.37,24.78-21.5,12.46-7.27,23.43-9.39,34.6-11.47,30.55-5.69,37.53,1.52,62.36-6.29,12.32-3.88,20.64-8.82,25.13-11.78,8.34-5.5,14.39-11.36,18.43-15.82-9.18,4.49-16.95,7.83-22.57,10.14-9.3,3.81-14.08,5.74-20.12,7.06-9.6,2.1-17.87,1.89-23.5,1.33-8.39-.59-20.53-1.12-35.17-.56-17.07.65-27.03,1.03-36.38,4-7.29,2.32-27.44,10.42-43.53,42.22-9.35-12.61-21.23-31.83-29.02-57.42-12.72-41.8-7.6-77.81-3.64-96.04Z"/>
      <g>
        <path class="cls-2" d="M168.46,261.81c10.78-9.46,26.01-20.95,45.92-31.02,20.44-10.34,39.2-15.84,53.44-18.89-.27,8.76-2.25,23.26-12.29,35.63-17.6,21.71-52.89,28.17-87.07,14.28Z"/>
        <path class="cls-1" d="M210.06,233.04c.08,2.36.57,6.84,3.33,11.49,4.3,7.27,11.14,9.93,13.21,10.65-1.81-2.54-5.84-8.95-5.84-17.81,0-4.47,1.03-8.12,1.98-10.6-2.33.73-5.03,1.77-7.9,3.31-1.8.97-3.39,1.98-4.77,2.96Z"/>
      </g>
      <path class="cls-2" d="M102.3,348.02c-2.79.63-5.83,1.46-9.06,2.56-2.9.98-5.55,2.04-7.94,3.11.68,3.27,2.18,8.46,5.82,13.89,4.4,6.56,9.77,10.23,12.82,12.01-1.02-4.59-1.9-10.13-2.18-16.45-.25-5.7.03-10.79.53-15.12Z"/>
    </g>
  </g>
</svg>