<?xml version="1.0" encoding="UTF-8"?>
<svg id="_Слой_2" xmlns="http://www.w3.org/2000/svg" version="1.1" viewBox="0 0 701.7 637.3">
  <!-- Generator: Adobe Illustrator 29.0.0, SVG Export Plug-In . SVG Version: 2.1.0 Build 186)  -->
  <defs>
    <style>
      .st0 {
        fill: #d2fec2;
      }
    </style>
  </defs>
  <g id="_Слой_1-2">
    <path class="st0" d="M683.1,175.7c-18.3,35.4-45.5,54.7-59.7,64.3-27.7,18.9-51.6,29.4-68.7,35.6-15.2,5.5-28.9,9-45.3,20.2-15.5,10.7-25.8,23-32.1,31.9,3.7-7.9,7.3-16.1,10.9-24.6,5.4-12.8,10.3-25.2,14.7-37.3-8.1,4.9-16.4,10.5-24.8,16.7-42.6,31.8-70.3,69.5-88.1,100.9-3.3,7.1-6.5,14.2-9.8,21.3l-10,23.8,13.3-23.3c3.8,2.5,23,14.8,47.6,9.5,19.9-4.2,30.4-17.1,41.4-30.7,7.2-8.8,6.6-11.4,6-12.3-2.2-3.4-14.2.9-16.2,1.7,3.7-2.1,7.5-4.5,11.3-7.1,20.3-14,33.9-31.1,42.9-45.5-1.3,8.9-4.1,21-10.2,34.3-7.1,15.5-16,26.6-22.7,33.8,12.8-2.9,28.3-7.6,45.1-15.6,22.8-10.8,40-23.7,51.9-34.3-7.2,15.9-15.7,27.7-22.2,35.6-3.1,3.7-17.6,21-42.8,36.2-10.8,6.6-20.6,11-27.9,13.8-2.2,4.6-5.4,10.2-10.2,15.9-7.6,9.2-16,14.7-21.8,17.9,13-7.4,16.8-19.7,13.1-25.1-2.7-4.1-10.1-5.2-17.6-3.6-5.9,3.6-12.3,8.4-18.6,14.6-22.2,21.9-28.8,48.5-31,61.8,11.3-4,25.5-10.3,40.5-20.4,12.7-8.5,22.7-17.4,30.1-25-5.5,9.1-12.9,19.6-22.8,30.3-6.4,6.9-12.7,12.6-18.5,17.4-18.6,27.2-37.2,58.3-54.5,93.2-6,12.1-11.5,24-16.5,35.6,5.8-24.9,11.5-49.8,17.3-74.6,3.4-7.2,6.8-15.4,9.8-24.6,6.1-19,8.5-36.4,9.2-50.2,1.2-6.6,3.6-15.2,8.1-24.5,5.6-11.5,12.4-19.8,17.5-25.2-5.3,3.3-13.5,9.3-20.1,19.5-11.5,17.5-10.9,35.5-10.4,41.8-2.6-5-5.1-10-7.7-14.9-.2,4.9-.9,10.4-2.1,16.5-1.6,8.1-4,15-6.3,20.6,1.3-8.7,1.4-16.1,1.3-21.4-.1-4.5-.7-10.6-2.5-19.1-3-14.4-11.1-41.9-23.3-76.7-12.2,34.8-20.2,62.3-23.3,76.7-1.8,8.6-2.4,14.8-2.5,19.1-.1,5.3,0,12.7,1.3,21.4-2.3-5.6-4.7-12.5-6.3-20.6-1.2-6-1.8-11.6-2.1-16.5-2.6,5-5.1,10-7.7,14.9.5-6.3,1.1-24.3-10.4-41.8-6.7-10.2-14.9-16.3-20.2-19.5,5.2,5.4,12,13.7,17.6,25.2,4.5,9.4,6.9,18,8.1,24.5.7,13.9,3,31.2,9.1,50.2,3,9.2,6.3,17.4,9.8,24.6,5.8,24.9,11.5,49.8,17.3,74.6-5-11.6-10.5-23.5-16.5-35.6-17.3-35-35.9-66-54.5-93.2-5.9-4.8-12.2-10.5-18.6-17.4-9.9-10.7-17.3-21.2-22.8-30.3,7.5,7.7,17.4,16.6,30.1,25,15,10,29.2,16.3,40.5,20.4-2.2-13.3-8.8-39.9-31-61.8-6.3-6.2-12.7-10.9-18.6-14.6-7.5-1.6-14.9-.5-17.6,3.6-3.6,5.5.1,17.7,13.1,25.1-5.8-3.2-14.1-8.7-21.8-17.9-4.8-5.7-8-11.3-10.2-15.9-7.3-2.9-17.1-7.3-27.9-13.8-25.1-15.3-39.7-32.5-42.8-36.2-6.6-7.9-15-19.7-22.2-35.6,11.9,10.5,29.1,23.5,51.9,34.3,16.8,7.9,32.4,12.7,45.1,15.6-6.7-7.1-15.6-18.3-22.7-33.8-6.1-13.3-8.9-25.4-10.2-34.3,9,14.4,22.6,31.4,42.9,45.5,3.8,2.6,7.6,5,11.3,7.1-2-.7-14.1-5-16.2-1.7-.6,1-1.2,3.5,6,12.3,11,13.5,21.5,26.4,41.4,30.7,24.6,5.3,43.9-7,47.6-9.5l13.3,23.3-10-23.8c-3.2-7.1-6.5-14.2-9.8-21.3-17.8-31.3-45.5-69.1-88.1-100.9-8.4-6.2-16.7-11.8-24.8-16.7,4.4,12,9.3,24.5,14.7,37.3,3.6,8.5,7.2,16.7,10.9,24.6-6.3-8.9-16.5-21.2-32.1-31.9-16.4-11.3-30.1-14.8-45.3-20.2-17.1-6.2-41-16.7-68.7-35.6-14.2-9.7-41.4-28.9-59.7-64.3-7.1-13.8-25.2-48.7-16-93.1C12.9,32.8,50.4,6.1,59.5,0c-27.4,50.1-25.9,109.6,4.3,153.4,31.1,45.1,80.1,55.4,91.4,57.4,15,.2,37.6,2.3,62.9,12.4,16.9,6.8,30.2,15.2,39.8,22.4,2.3,6.7,6,14.8,11.8,23,15.7,22.1,37.3,31.4,47.4,35-3.2-4.3-7.5-11.2-10.2-20.5-3.8-13.4-2.3-24.8-1.1-30.8.6,4.4,3.2,17.6,14.5,29,12,12,26.2,14.2,30.4,14.7,4.3-.5,18.4-2.7,30.4-14.7,11.4-11.4,13.9-24.6,14.6-29,1.2,5.9,2.8,17.4-1.1,30.8-2.7,9.3-7,16.2-10.2,20.5,10.1-3.6,31.7-12.8,47.4-35,5.8-8.2,9.5-16.3,11.8-23,9.6-7.2,22.9-15.6,39.8-22.4,25.3-10.1,47.9-12.3,62.9-12.4,11.2-2.1,60.2-12.4,91.3-57.4C668.2,109.6,669.6,50.1,642.2,0c9,6.1,46.6,32.8,56.9,82.6,9.2,44.4-8.9,79.4-16,93.1h0Z"/>
  </g>
</svg>