<?xml version="1.0" encoding="UTF-8"?>
<svg id="_Слой_2" data-name="Слой 2" xmlns="http://www.w3.org/2000/svg" xmlns:xlink="http://www.w3.org/1999/xlink" viewBox="0 0 701.71 637.28">
  <defs>
    <style>
      .cls-1 {
        fill: url(#_Безымянный_градиент_61);
      }

      .cls-2 {
        fill: url(#_Безымянный_градиент_61-3);
      }

      .cls-3 {
        fill: url(#_Безымянный_градиент_61-2);
      }

      .cls-4 {
        opacity: .44;
      }
    </style>
    <radialGradient id="_Безымянный_градиент_61" data-name="Безымянный градиент 61" cx="350.85" cy="365.06" fx="350.85" fy="365.06" r="335.13" gradientUnits="userSpaceOnUse">
      <stop offset=".16" stop-color="#7fdfff"/>
      <stop offset="1" stop-color="#3376ff"/>
    </radialGradient>
    <radialGradient id="_Безымянный_градиент_61-2" data-name="Безымянный градиент 61" cx="422.07" cy="380.8" fx="422.07" fy="380.8" r="22.82" xlink:href="#_Безымянный_градиент_61"/>
    <radialGradient id="_Безымянный_градиент_61-3" data-name="Безымянный градиент 61" cx="279.09" cy="380.8" fx="279.09" fy="380.8" r="22.82" xlink:href="#_Безымянный_градиент_61"/>
  </defs>
  <g id="_Слой_1-2" data-name="Слой 1">
    <g>
      <g class="cls-4">
        <path class="cls-1" d="M683.14,175.74c-18.33,35.44-45.54,54.67-59.72,64.34-27.66,18.88-51.6,29.4-68.67,35.57-15.2,5.49-28.88,8.95-45.32,20.24-15.54,10.68-25.79,23.02-32.07,31.88,3.67-7.91,7.31-16.1,10.89-24.57,5.4-12.77,10.27-25.21,14.66-37.26-8.14,4.93-16.44,10.46-24.8,16.7-42.62,31.78-70.28,69.52-88.1,100.85-3.26,7.11-6.52,14.21-9.78,21.32l-10.04,23.75,13.3-23.34c3.76,2.5,23.01,14.75,47.64,9.5,19.9-4.23,30.39-17.14,41.4-30.68,7.18-8.82,6.64-11.36,6.02-12.34-2.16-3.37-14.21.93-16.24,1.66,3.72-2.1,7.51-4.45,11.33-7.09,20.3-14.04,33.89-31.07,42.86-45.47-1.32,8.92-4.08,21.03-10.18,34.34-7.1,15.48-15.99,26.65-22.66,33.8,12.75-2.9,28.3-7.63,45.11-15.57,22.83-10.79,40.02-23.74,51.91-34.27-7.2,15.91-15.65,27.71-22.19,35.63-3.07,3.71-17.62,20.95-42.76,36.24-10.81,6.58-20.57,10.97-27.9,13.84-2.19,4.58-5.41,10.17-10.18,15.89-7.65,9.17-15.99,14.72-21.78,17.91,13.04-7.42,16.77-19.7,13.13-25.15-2.72-4.08-10.12-5.2-17.62-3.56-5.92,3.63-12.34,8.37-18.63,14.56-22.21,21.91-28.8,48.51-31.05,61.8,11.26-4.04,25.48-10.34,40.52-20.36,12.71-8.48,22.66-17.37,30.14-25.05-5.47,9.08-12.86,19.6-22.79,30.28-6.36,6.85-12.68,12.59-18.54,17.37-18.56,27.24-37.19,58.26-54.49,93.22-5.98,12.08-11.48,23.96-16.52,35.58,5.77-24.88,11.55-49.76,17.32-74.64,3.44-7.19,6.83-15.4,9.77-24.57,6.12-19.04,8.45-36.35,9.16-50.22,1.24-6.56,3.56-15.16,8.1-24.53,5.57-11.49,12.36-19.8,17.55-25.22-5.26,3.26-13.45,9.34-20.15,19.55-11.49,17.5-10.93,35.49-10.43,41.81-2.56-4.98-5.13-9.95-7.7-14.94-.25,4.86-.85,10.41-2.07,16.46-1.65,8.09-4,15-6.32,20.57,1.28-8.73,1.44-16.06,1.32-21.38-.1-4.45-.7-10.6-2.49-19.08-3.04-14.38-11.12-41.92-23.26-76.72-12.16,34.8-20.23,62.34-23.26,76.72-1.82,8.6-2.38,14.81-2.48,19.08-.12,5.32.05,12.65,1.32,21.38-2.32-5.57-4.67-12.47-6.32-20.57-1.23-6.05-1.83-11.6-2.08-16.46-2.56,4.98-5.13,9.96-7.69,14.94.49-6.32,1.06-24.31-10.43-41.81-6.7-10.21-14.9-16.28-20.16-19.55,5.19,5.41,11.99,13.72,17.56,25.22,4.53,9.37,6.85,17.97,8.1,24.53.71,13.88,3.04,31.18,9.15,50.22,2.95,9.17,6.33,17.38,9.78,24.57,5.77,24.88,11.54,49.76,17.31,74.64-5.04-11.62-10.53-23.5-16.51-35.58-17.3-34.95-35.93-65.97-54.49-93.22-5.86-4.78-12.18-10.52-18.55-17.37-9.92-10.68-17.31-21.2-22.78-30.28,7.48,7.68,17.42,16.57,30.14,25.05,15.03,10.02,29.25,16.32,40.52,20.36-2.25-13.29-8.84-39.89-31.05-61.8-6.28-6.2-12.71-10.93-18.63-14.56-7.5-1.64-14.9-.53-17.62,3.56-3.63,5.45.1,17.74,13.14,25.15-5.79-3.19-14.13-8.74-21.79-17.91-4.77-5.72-7.99-11.31-10.18-15.89-7.32-2.88-17.08-7.26-27.9-13.84-25.15-15.3-39.7-32.54-42.76-36.24-6.55-7.92-14.99-19.72-22.19-35.63,11.89,10.53,29.08,23.49,51.9,34.27,16.82,7.94,32.37,12.67,45.12,15.57-6.67-7.15-15.57-18.32-22.66-33.8-6.1-13.31-8.86-25.42-10.18-34.34,8.97,14.4,22.56,31.43,42.86,45.47,3.83,2.64,7.62,4.99,11.34,7.09-2.03-.73-14.08-5.03-16.24-1.66-.63.98-1.16,3.52,6.02,12.34,11.01,13.54,21.51,26.44,41.4,30.68,24.64,5.26,43.89-7,47.65-9.5l13.3,23.34-10.05-23.75c-3.25-7.11-6.52-14.21-9.77-21.32-17.82-31.32-45.47-69.07-88.1-100.85-8.36-6.24-16.67-11.77-24.81-16.7,4.39,12.05,9.26,24.49,14.67,37.26,3.58,8.47,7.22,16.66,10.89,24.57-6.28-8.86-16.52-21.2-32.07-31.88-16.44-11.29-30.12-14.75-45.33-20.24-17.06-6.16-41-16.69-68.66-35.57-14.19-9.67-41.4-28.9-59.73-64.34-7.11-13.75-25.21-48.74-16.01-93.11C12.88,32.76,50.44,6.06,59.46,0c-27.41,50.06-25.93,109.56,4.31,153.35,31.11,45.05,80.15,55.35,91.36,57.42,14.97.18,37.63,2.34,62.9,12.44,16.93,6.76,30.2,15.17,39.84,22.38,2.34,6.74,5.99,14.81,11.83,23.03,15.7,22.15,37.28,31.42,47.43,34.98-3.21-4.31-7.5-11.19-10.18-20.5-3.84-13.39-2.31-24.82-1.08-30.75.64,4.37,3.16,17.59,14.55,28.96,12.03,11.99,26.17,14.16,30.43,14.66,4.27-.49,18.41-2.67,30.43-14.66,11.4-11.37,13.92-24.59,14.56-28.96,1.24,5.93,2.76,17.36-1.08,30.75-2.67,9.31-6.96,16.2-10.18,20.5,10.14-3.56,31.72-12.84,47.43-34.98,5.84-8.22,9.49-16.29,11.83-23.03,9.64-7.22,22.91-15.62,39.84-22.38,25.26-10.1,47.94-12.26,62.9-12.44,11.2-2.07,60.24-12.37,91.35-57.42,30.24-43.79,31.72-103.29,4.31-153.35,9.02,6.06,46.57,32.76,56.91,82.63,9.19,44.37-8.91,79.36-16.02,93.11Z"/>
      </g>
      <g>
        <path class="cls-3" d="M396.23,398.65c5.2-6.31,12.72-14.17,23-21.66,10.56-7.69,20.61-12.5,28.34-15.52.65,4.96.86,13.29-3.65,21.17-7.92,13.82-27.18,20.69-47.69,16Z"/>
        <path class="cls-2" d="M304.94,398.65c-5.2-6.31-12.72-14.17-23-21.66-10.56-7.69-20.61-12.5-28.34-15.52-.65,4.96-.86,13.29,3.65,21.17,7.92,13.82,27.18,20.69,47.69,16Z"/>
      </g>
    </g>
  </g>
</svg>