<?xml version="1.0" encoding="UTF-8"?>
<svg id="_Слой_2" data-name="Слой 2" xmlns="http://www.w3.org/2000/svg" viewBox="0 0 103.52 80.98">
  <defs>
    <style>
      .cls-1 {
        fill: #a5d3c6;
        stroke-width: 0px;
      }
    </style>
  </defs>
  <g id="_Слой_1-2" data-name="Слой 1">
    <g>
      <path class="cls-1" d="M54.69,80.98c1.93-6.73,4.25-12.27,6.31-16.52,2.68-5.52,5.94-12.87,12.37-19.51,3.06-3.15,8.12-7.65,15.62-11.48-.63.18-1.57.37-2.68.28-4.2-.37-7.34-4.56-8.57-7.76-1.9-4.94-1.65-11.39,2.32-15.97,1.01-1.16,4.64-4.86,9.7-4.75,6.1.14,12.02,5.77,13.47,13.93.26-1.53,1.3-8.67-3.22-14.01C94.12-1.78,83.7.13,81.2.58c-16.13,2.94-22.9,21.67-23.42,23.19,1.72-2.43,4.78-6.04,9.63-8.92,2.53-1.5,4.94-2.44,6.92-3.03-.89,1.44-2.97,5.27-2.66,10.44.44,7.24,5.25,11.62,6.24,12.49-3.6,2.56-8.16,6.37-12.59,11.77-4.02,4.9-6.71,10.46-8.49,14.23-.71.68-1.43,1.36-2.14,2.05v18.18Z"/>
      <path class="cls-1" d="M69.9,37.16c-1.81.7-3.31,1.37-4.44,1.91-1.65.79-2.29,1.19-2.83,1.91-.75,1.01-.92,2.13-.96,2.83.99-.18,3.14-.71,5.19-2.46,1.8-1.53,2.66-3.27,3.04-4.2Z"/>
      <path class="cls-1" d="M48.83,80.98c-1.93-6.73-4.25-12.27-6.31-16.52-2.68-5.52-5.94-12.87-12.37-19.51-3.06-3.15-8.12-7.65-15.62-11.48.63.18,1.57.37,2.68.28,4.2-.37,7.34-4.56,8.57-7.76,1.9-4.94,1.65-11.39-2.32-15.97-1.01-1.16-4.64-4.86-9.7-4.75C7.65,5.41,1.73,11.04.29,19.2.03,17.67-1.01,10.53,3.51,5.19,9.4-1.78,19.82.13,22.32.58c16.13,2.94,22.9,21.67,23.42,23.19-1.72-2.43-4.78-6.04-9.63-8.92-2.53-1.5-4.94-2.44-6.92-3.03.89,1.44,2.97,5.27,2.66,10.44-.44,7.24-5.25,11.62-6.24,12.49,3.6,2.56,8.16,6.37,12.59,11.77,4.02,4.9,6.71,10.46,8.49,14.23.71.68,1.43,1.36,2.14,2.05v18.18Z"/>
      <path class="cls-1" d="M33.62,37.16c1.81.7,3.31,1.37,4.44,1.91,1.65.79,2.29,1.19,2.83,1.91.75,1.01.92,2.13.96,2.83-.99-.18-3.14-.71-5.19-2.46-1.8-1.53-2.66-3.27-3.04-4.2Z"/>
    </g>
  </g>
</svg>